<?xml version="1.0" encoding="iso-8859-1"?>
<!-- Uploaded to: SVG Repo, www.svgrepo.com, Generator: SVG Repo Mixer Tools -->
<svg height="800px" width="800px" version="1.1" id="Layer_1" xmlns="http://www.w3.org/2000/svg" xmlns:xlink="http://www.w3.org/1999/xlink" 
	 viewBox="0 0 512.001 512.001" xml:space="preserve">
<path style="fill:#51D2E1;" d="M432.409,79.239c-8.728-8.728-8.728-22.878,0-31.605l41.087-41.087
	c8.728-8.728,22.878-8.728,31.605,0c8.728,8.728,8.728,22.878,0,31.605l-41.087,41.087
	C455.287,87.966,441.137,87.966,432.409,79.239z"/>
<path style="fill:#6A81B5;" d="M505.203,93.548L418.927,7.272c-8.728-8.728-23.246-8.576-31.973,0.152L18.551,375.826
	c-3.546,3.546-5.744,8.236-6.335,13.217L0.598,486.991c-0.809,6.801,1.56,13.613,6.404,18.456
	c4.844,4.844,11.648,7.205,18.448,6.396l97.929-11.639c4.981-0.593,9.623-2.837,13.169-6.383l368.401-368.402
	C513.676,116.69,513.931,102.274,505.203,93.548z"/>
<path style="fill:#51D2E1;" d="M18.189,375.464c-3.546,3.546-5.562,8.418-6.155,13.399L0.507,486.9
	c-0.809,6.801,1.605,13.658,6.448,18.502c4.844,4.844,11.67,7.228,18.472,6.419l97.757-11.809c4.981-0.593,9.453-3.007,12.999-6.553
	L18.189,375.464z"/>
<path style="fill:#0D9EC0;" d="M505.102,6.544c-0.094-0.094-0.198-0.173-0.293-0.265l-72.664,72.664
	c0.092,0.095,0.171,0.198,0.265,0.294c8.728,8.728,22.878,8.728,31.605,0l41.087-41.087C513.83,29.423,513.83,15.272,505.102,6.544z
	"/>
<path style="fill:#263B74;" d="M505.203,93.548l-43.83-43.83L6.359,504.73c0.218,0.237,0.413,0.49,0.641,0.718
	c4.844,4.844,11.648,7.205,18.448,6.396l97.929-11.639c4.981-0.593,9.623-2.837,13.169-6.383l368.402-368.404
	C513.676,116.69,513.931,102.274,505.203,93.548z"/>
<g>
	<path style="fill:#0D9EC0;" d="M76.908,434.181l-70.55,70.55c0.203,0.221,0.384,0.457,0.597,0.67
		c4.844,4.844,11.67,7.228,18.472,6.419l97.757-11.809c4.981-0.593,9.453-3.007,12.999-6.554L76.908,434.181z"/>
	<path style="fill:#0D9EC0;" d="M264.899,427.955c-8.728-8.728-8.728-22.878,0-31.605l152.762-152.76L278.595,104.524
		c-8.728-8.728-8.728-22.878,0-31.605c8.728-8.728,22.878-8.728,31.605,0l154.869,154.869c8.728,8.728,8.728,22.878,0,31.605
		L296.504,427.955C287.776,436.683,273.627,436.683,264.899,427.955z"/>
</g>
</svg>